<svg width="34" height="11" viewBox="0 0 34 11" fill="none" xmlns="http://www.w3.org/2000/svg">
<path d="M0.636 9.192C0.212 9.192 0 9.076 0 8.844C0 8.78 0.004 8.74 0.012 8.724C0.06 8.548 0.424 8.28 1.104 7.92C1.776 7.568 2.428 7.316 3.06 7.164C3.636 7.028 4.188 6.908 4.716 6.804C5.244 6.692 5.752 6.6 6.24 6.528C6.768 6.104 7.088 5.68 7.2 5.256C7.224 5.168 7.236 5.088 7.236 5.016C7.236 4.704 7.02 4.484 6.588 4.356C6.46 4.316 6.016 4.244 5.256 4.14C4.552 4.044 4.064 3.936 3.792 3.816C3.44 3.656 3.264 3.428 3.264 3.132C3.264 3.02 3.288 2.892 3.336 2.748C3.52 2.18 4.128 1.596 5.16 0.996C6.296 0.332 7.384 0 8.424 0C9.184 0 9.564 0.216 9.564 0.648C9.564 0.872 9.456 1.152 9.24 1.488C9.152 1.624 9.08 1.692 9.024 1.692C9 1.692 8.988 1.676 8.988 1.644C8.988 1.604 9.012 1.544 9.06 1.464C9.18 1.272 9.24 1.1 9.24 0.948C9.24 0.564 8.892 0.372 8.196 0.372C7.756 0.372 7.328 0.424 6.912 0.528C6.504 0.624 6.1 0.764 5.7 0.948C4.852 1.356 4.264 1.892 3.936 2.556C3.864 2.7 3.828 2.824 3.828 2.928C3.828 3.304 4.352 3.572 5.4 3.732C6.256 3.852 6.832 3.96 7.128 4.056C7.688 4.232 7.956 4.476 7.932 4.788C7.956 5.324 7.66 5.868 7.044 6.42L7.128 6.408C7.16 6.4 7.2 6.396 7.248 6.396C7.296 6.396 7.352 6.396 7.416 6.396H7.476C7.548 6.396 7.584 6.42 7.584 6.468C7.584 6.548 7.508 6.592 7.356 6.6C7.316 6.608 7.272 6.612 7.224 6.612C7.176 6.612 7.128 6.616 7.08 6.624L6.768 6.66C6.28 7.044 5.728 7.4 5.112 7.728C4.496 8.056 3.804 8.356 3.036 8.628C1.956 9.004 1.156 9.192 0.636 9.192ZM0.564 8.904C0.932 8.904 1.712 8.684 2.904 8.244C4.032 7.852 4.996 7.384 5.796 6.84C5.46 6.928 5.068 7.032 4.62 7.152C4.172 7.264 3.656 7.392 3.072 7.536C2.792 7.6 2.508 7.684 2.22 7.788C1.932 7.9 1.636 8.024 1.332 8.16C0.716 8.448 0.408 8.668 0.408 8.82V8.832C0.408 8.88 0.46 8.904 0.564 8.904Z" fill="#1A2B3C"/>
<path d="M7.98019 7.548C7.92419 7.548 7.90819 7.524 7.93219 7.476C8.22819 6.924 8.56019 6.356 8.92819 5.772C9.30419 5.18 9.72419 4.568 10.1882 3.936C10.9722 2.88 11.6802 1.968 12.3122 1.2C12.3442 1.144 12.5242 1.056 12.8522 0.936C13.1562 0.808 13.3642 0.744 13.4762 0.744C13.5882 0.744 13.6442 0.784 13.6442 0.864C13.6442 0.936 13.5802 0.972 13.4522 0.972C13.3162 0.972 13.0642 1.156 12.6962 1.524C12.4162 1.788 11.7482 2.576 10.6922 3.888C10.3962 4.256 10.1242 4.616 9.87619 4.968C9.63619 5.312 9.42019 5.652 9.22819 5.988C11.1562 4.66 12.2282 3.996 12.4442 3.996C12.5802 3.996 12.7122 4.116 12.8402 4.356C12.3282 4.868 11.9162 5.468 11.6042 6.156C11.4922 6.404 11.4362 6.584 11.4362 6.696C11.4362 6.84 11.5082 6.912 11.6522 6.912C11.8282 6.912 12.1362 6.8 12.5762 6.576L13.4882 6.108C13.5202 6.1 13.5362 6.116 13.5362 6.156C13.5362 6.196 13.5242 6.244 13.5002 6.3C13.4762 6.356 13.4482 6.392 13.4162 6.408L12.6122 6.912C12.2522 7.136 11.9042 7.284 11.5682 7.356C11.0722 7.164 10.8242 6.948 10.8242 6.708C10.8242 6.692 10.8242 6.676 10.8242 6.66C10.8322 6.636 10.8402 6.612 10.8482 6.588C10.9122 6.428 11.0042 6.244 11.1242 6.036C11.2522 5.82 11.4042 5.58 11.5802 5.316C11.8602 4.892 11.9842 4.664 11.9522 4.632C11.9442 4.624 11.9282 4.62 11.9042 4.62C11.7602 4.62 11.3922 4.82 10.8002 5.22C10.3122 5.564 9.97619 5.816 9.79219 5.976C9.24819 6.472 8.88019 6.916 8.68819 7.308C8.30419 7.468 8.06819 7.548 7.98019 7.548Z" fill="#1A2B3C"/>
<path d="M13.6767 7.452C13.4927 7.452 13.4007 7.344 13.4007 7.128C13.4007 6.976 13.4567 6.78 13.5687 6.54C13.8567 6.004 14.3327 5.452 14.9967 4.884C15.8047 4.212 16.4607 3.876 16.9647 3.876C17.2767 3.876 17.4927 3.936 17.6127 4.056C17.7967 3.92 17.9927 3.852 18.2007 3.852C18.2407 3.852 18.2607 3.864 18.2607 3.888C18.2607 3.904 18.2527 3.92 18.2367 3.936C18.1247 4.064 17.9967 4.236 17.8527 4.452C17.7167 4.668 17.5687 4.936 17.4087 5.256C17.0327 5.992 16.8447 6.532 16.8447 6.876C16.8447 6.956 16.8487 7.004 16.8567 7.02V7.032C16.8567 7.08 16.8327 7.14 16.7847 7.212C16.7367 7.276 16.6887 7.308 16.6407 7.308C16.5447 7.308 16.4967 7.148 16.4967 6.828C16.4967 6.284 16.6207 5.764 16.8687 5.268L15.8487 6.12C15.4647 6.44 15.1167 6.704 14.8047 6.912C14.5007 7.112 14.2367 7.264 14.0127 7.368C13.9007 7.424 13.7887 7.452 13.6767 7.452ZM14.2167 6.9C14.2647 6.9 14.3167 6.884 14.3727 6.852C14.4767 6.812 14.6567 6.708 14.9127 6.54C15.1687 6.372 15.4447 6.164 15.7407 5.916C16.1087 5.612 16.4127 5.336 16.6527 5.088C16.9007 4.832 17.0807 4.64 17.1927 4.512C17.1447 4.376 17.0487 4.308 16.9047 4.308C16.6247 4.308 16.1767 4.548 15.5607 5.028C14.8647 5.588 14.4087 6.048 14.1927 6.408C14.1207 6.536 14.0847 6.656 14.0847 6.768C14.0847 6.856 14.1287 6.9 14.2167 6.9Z" fill="#1A2B3C"/>
<path d="M21.059 7.632C20.963 7.632 20.883 7.584 20.819 7.488C20.731 7.352 20.687 7.168 20.687 6.936C20.687 6.512 20.839 5.928 21.143 5.184C19.887 6.336 18.939 7.056 18.299 7.344C18.131 7.416 17.987 7.452 17.867 7.452C17.635 7.452 17.519 7.34 17.519 7.116C17.519 6.996 17.559 6.86 17.639 6.708C17.935 6.164 18.411 5.612 19.067 5.052C19.883 4.356 20.535 4.008 21.023 4.008C21.231 4.008 21.415 4.052 21.575 4.14L22.403 2.748C22.595 2.42 22.779 2.152 22.955 1.944C23.131 1.728 23.283 1.564 23.411 1.452C23.467 1.396 23.567 1.368 23.711 1.368C23.839 1.368 23.903 1.408 23.903 1.488C23.903 1.552 23.867 1.628 23.795 1.716C23.595 1.98 22.935 2.928 21.815 4.56C21.751 4.688 21.683 4.84 21.611 5.016C21.547 5.184 21.475 5.376 21.395 5.592C21.179 6.2 21.071 6.66 21.071 6.972C21.071 7.188 21.127 7.32 21.239 7.368C21.287 7.376 21.311 7.404 21.311 7.452C21.311 7.572 21.227 7.632 21.059 7.632ZM18.359 6.912C18.375 6.912 18.395 6.908 18.419 6.9C18.443 6.884 18.471 6.872 18.503 6.864C18.639 6.8 18.815 6.692 19.031 6.54C19.255 6.388 19.515 6.196 19.811 5.964C20.019 5.804 20.239 5.612 20.471 5.388C20.703 5.156 20.955 4.9 21.227 4.62C21.147 4.452 21.047 4.368 20.927 4.368C20.575 4.368 20.107 4.612 19.523 5.1C18.987 5.54 18.607 5.944 18.383 6.312C18.279 6.464 18.227 6.6 18.227 6.72C18.227 6.848 18.271 6.912 18.359 6.912Z" fill="#1A2B3C"/>
<path d="M22.4892 7.452C22.3052 7.452 22.2132 7.344 22.2132 7.128C22.2132 6.976 22.2692 6.78 22.3812 6.54C22.6692 6.004 23.1452 5.452 23.8092 4.884C24.6172 4.212 25.2732 3.876 25.7772 3.876C26.0892 3.876 26.3052 3.936 26.4252 4.056C26.6092 3.92 26.8052 3.852 27.0132 3.852C27.0532 3.852 27.0732 3.864 27.0732 3.888C27.0732 3.904 27.0652 3.92 27.0492 3.936C26.9372 4.064 26.8092 4.236 26.6652 4.452C26.5292 4.668 26.3812 4.936 26.2212 5.256C25.8452 5.992 25.6572 6.532 25.6572 6.876C25.6572 6.956 25.6612 7.004 25.6692 7.02V7.032C25.6692 7.08 25.6452 7.14 25.5972 7.212C25.5492 7.276 25.5012 7.308 25.4532 7.308C25.3572 7.308 25.3092 7.148 25.3092 6.828C25.3092 6.284 25.4332 5.764 25.6812 5.268L24.6612 6.12C24.2772 6.44 23.9292 6.704 23.6172 6.912C23.3132 7.112 23.0492 7.264 22.8252 7.368C22.7132 7.424 22.6012 7.452 22.4892 7.452ZM23.0292 6.9C23.0772 6.9 23.1292 6.884 23.1852 6.852C23.2892 6.812 23.4692 6.708 23.7252 6.54C23.9812 6.372 24.2572 6.164 24.5532 5.916C24.9212 5.612 25.2252 5.336 25.4652 5.088C25.7132 4.832 25.8932 4.64 26.0052 4.512C25.9572 4.376 25.8612 4.308 25.7172 4.308C25.4372 4.308 24.9892 4.548 24.3732 5.028C23.6772 5.588 23.2212 6.048 23.0052 6.408C22.9332 6.536 22.8972 6.656 22.8972 6.768C22.8972 6.856 22.9412 6.9 23.0292 6.9Z" fill="#1A2B3C"/>
<path d="M26.6075 7.692C26.3995 7.692 26.2955 7.592 26.2955 7.392C26.2955 7.28 26.3235 7.172 26.3795 7.068C26.4355 6.964 26.5115 6.832 26.6075 6.672C26.7115 6.504 26.8315 6.308 26.9675 6.084C27.1035 5.86 27.2635 5.604 27.4475 5.316C27.6395 5.028 27.8515 4.712 28.0835 4.368C28.3155 4.016 28.5275 3.7 28.7195 3.42C28.9195 3.14 29.0955 2.888 29.2475 2.664C29.4075 2.44 29.5435 2.252 29.6555 2.1C29.7755 1.94 29.8755 1.812 29.9555 1.716C30.0035 1.66 30.1675 1.576 30.4475 1.464C30.7275 1.344 30.9115 1.284 30.9995 1.284C31.0955 1.284 31.1435 1.316 31.1435 1.38C31.1435 1.452 31.0675 1.5 30.9155 1.524C30.6915 1.556 30.4395 1.732 30.1595 2.052C29.8875 2.372 29.4315 3.02 28.7915 3.996C28.6315 4.252 28.5515 4.416 28.5515 4.488C28.5515 4.496 28.5595 4.524 28.5755 4.572C28.7595 4.444 28.9915 4.332 29.2715 4.236C29.5515 4.132 29.8875 4.048 30.2795 3.984C30.3115 3.976 30.3555 3.972 30.4115 3.972C30.5795 3.972 30.6635 4.06 30.6635 4.236C30.6635 4.492 30.4835 4.86 30.1235 5.34C29.9395 5.588 29.7395 5.82 29.5235 6.036C29.3075 6.244 29.0715 6.44 28.8155 6.624C27.8395 7.336 27.1035 7.692 26.6075 7.692ZM27.1475 7.008C27.4435 7.008 27.7315 6.944 28.0115 6.816C28.2995 6.688 28.5795 6.508 28.8515 6.276C29.3875 5.836 29.7275 5.324 29.8715 4.74C29.8795 4.716 29.8835 4.68 29.8835 4.632C29.8835 4.464 29.8195 4.388 29.6915 4.404C29.4835 4.436 29.2635 4.504 29.0315 4.608C28.7995 4.712 28.5795 4.84 28.3715 4.992C28.1715 5.136 28.0075 5.296 27.8795 5.472C27.7515 5.648 27.6115 5.848 27.4595 6.072C27.3155 6.288 27.1635 6.528 27.0035 6.792C26.9875 6.816 26.9795 6.844 26.9795 6.876C26.9795 6.964 27.0355 7.008 27.1475 7.008Z" fill="#1A2B3C"/>
<path d="M33.2637 9.55282C33.2756 9.43944 33.2646 9.36187 33.2308 9.32011C33.1293 9.19482 32.9427 9.09242 32.6708 9.01292C32.4103 8.94733 32.0847 8.89403 31.6942 8.853C31.1903 8.80006 30.6264 8.77265 30.0025 8.77079C29.366 8.7676 28.7213 8.78265 28.0682 8.81593C27.4012 8.86048 26.7721 8.90901 26.1807 8.9615C25.588 9.02659 25.0778 9.09399 24.6502 9.16369C23.6941 9.2925 22.9403 9.43619 22.3888 9.59476C21.8246 9.75201 21.4981 9.88964 21.4092 10.0077C21.3801 10.0428 21.3572 10.0786 21.3406 10.1151C21.3102 10.1628 21.2929 10.2056 21.289 10.2434C21.281 10.319 21.3085 10.3601 21.3715 10.3667C22.1439 10.1676 22.9779 9.98781 23.8736 9.82718C24.7693 9.66655 25.6749 9.53245 26.5905 9.42486C27.4935 9.31595 28.3604 9.24782 29.1911 9.22047C30.0092 9.1918 30.7395 9.21121 31.382 9.27871C31.6591 9.30782 31.9161 9.34755 32.1528 9.39789C32.3895 9.44824 32.5997 9.50853 32.7833 9.57877C32.894 9.61587 32.9733 9.64967 33.021 9.68016C33.08 9.72457 33.1221 9.7481 33.1473 9.75075C33.2103 9.75736 33.2491 9.69139 33.2637 9.55282Z" fill="#1A2B3C"/>
</svg>
