<svg width="32" height="10" viewBox="0 0 32 10" fill="none" xmlns="http://www.w3.org/2000/svg">
<path d="M0.636133 9.19187C0.212133 9.19187 0.000132812 9.07587 0.000132812 8.84387C0.000132812 8.77987 0.00413281 8.73987 0.0121328 8.72387C0.0601328 8.54787 0.424133 8.27987 1.10413 7.91987C1.77613 7.56787 2.42813 7.31587 3.06013 7.16387C3.63613 7.02787 4.18813 6.90787 4.71613 6.80387C5.24413 6.69187 5.75213 6.59987 6.24013 6.52787C6.76813 6.10387 7.08813 5.67987 7.20013 5.25587C7.22413 5.16787 7.23613 5.08787 7.23613 5.01587C7.23613 4.70387 7.02013 4.48387 6.58813 4.35587C6.46013 4.31587 6.01613 4.24387 5.25613 4.13987C4.55213 4.04387 4.06413 3.93587 3.79213 3.81587C3.44013 3.65587 3.26413 3.42787 3.26413 3.13187C3.26413 3.01987 3.28813 2.89187 3.33613 2.74787C3.52013 2.17987 4.12813 1.59587 5.16013 0.995867C6.29613 0.331867 7.38413 -0.000133276 8.42413 -0.000133276C9.18413 -0.000133276 9.56413 0.215867 9.56413 0.647867C9.56413 0.871867 9.45613 1.15187 9.24013 1.48787C9.15213 1.62387 9.08013 1.69187 9.02413 1.69187C9.00013 1.69187 8.98813 1.67587 8.98813 1.64387C8.98813 1.60387 9.01213 1.54387 9.06013 1.46387C9.18013 1.27187 9.24013 1.09987 9.24013 0.947867C9.24013 0.563867 8.89213 0.371867 8.19613 0.371867C7.75613 0.371867 7.32813 0.423867 6.91213 0.527867C6.50413 0.623867 6.10013 0.763867 5.70013 0.947867C4.85213 1.35587 4.26413 1.89187 3.93613 2.55587C3.86413 2.69987 3.82813 2.82387 3.82813 2.92787C3.82813 3.30387 4.35213 3.57187 5.40013 3.73187C6.25613 3.85187 6.83213 3.95987 7.12813 4.05587C7.68813 4.23187 7.95613 4.47587 7.93213 4.78787C7.95613 5.32387 7.66013 5.86787 7.04413 6.41987L7.12813 6.40787C7.16013 6.39987 7.20013 6.39587 7.24813 6.39587C7.29613 6.39587 7.35213 6.39587 7.41613 6.39587H7.47613C7.54813 6.39587 7.58413 6.41987 7.58413 6.46787C7.58413 6.54787 7.50813 6.59187 7.35613 6.59987C7.31613 6.60787 7.27213 6.61187 7.22413 6.61187C7.17613 6.61187 7.12813 6.61587 7.08013 6.62387L6.76813 6.65987C6.28013 7.04387 5.72813 7.39987 5.11213 7.72787C4.49613 8.05587 3.80413 8.35587 3.03613 8.62787C1.95613 9.00387 1.15613 9.19187 0.636133 9.19187ZM0.564133 8.90387C0.932133 8.90387 1.71213 8.68387 2.90413 8.24387C4.03213 7.85187 4.99613 7.38387 5.79613 6.83987C5.46013 6.92787 5.06813 7.03187 4.62013 7.15187C4.17213 7.26387 3.65613 7.39187 3.07213 7.53587C2.79213 7.59987 2.50813 7.68387 2.22013 7.78787C1.93213 7.89987 1.63613 8.02387 1.33213 8.15987C0.716133 8.44787 0.408133 8.66787 0.408133 8.81987V8.83187C0.408133 8.87987 0.460133 8.90387 0.564133 8.90387ZM7.98032 7.54787C7.92432 7.54787 7.90832 7.52387 7.93232 7.47587C8.22832 6.92387 8.56032 6.35587 8.92832 5.77187C9.30432 5.17987 9.72432 4.56787 10.1883 3.93587C10.9723 2.87987 11.6803 1.96787 12.3123 1.19987C12.3443 1.14387 12.5243 1.05587 12.8523 0.935867C13.1563 0.807867 13.3643 0.743867 13.4763 0.743867C13.5883 0.743867 13.6443 0.783867 13.6443 0.863867C13.6443 0.935867 13.5803 0.971867 13.4523 0.971867C13.3163 0.971867 13.0643 1.15587 12.6963 1.52387C12.4163 1.78787 11.7483 2.57587 10.6923 3.88787C10.3963 4.25587 10.1243 4.61587 9.87632 4.96787C9.63632 5.31187 9.42032 5.65187 9.22832 5.98787C11.1563 4.65987 12.2283 3.99587 12.4443 3.99587C12.5803 3.99587 12.7123 4.11587 12.8403 4.35587C12.3283 4.86787 11.9163 5.46787 11.6043 6.15587C11.4923 6.40387 11.4363 6.58387 11.4363 6.69587C11.4363 6.83987 11.5083 6.91187 11.6523 6.91187C11.8283 6.91187 12.1363 6.79987 12.5763 6.57587L13.4883 6.10787C13.5203 6.09987 13.5363 6.11587 13.5363 6.15587C13.5363 6.19587 13.5243 6.24387 13.5003 6.29987C13.4763 6.35587 13.4483 6.39187 13.4163 6.40787L12.6123 6.91187C12.2523 7.13587 11.9043 7.28387 11.5683 7.35587C11.0723 7.16387 10.8243 6.94787 10.8243 6.70787C10.8243 6.69187 10.8243 6.67587 10.8243 6.65987C10.8323 6.63587 10.8403 6.61187 10.8483 6.58787C10.9123 6.42787 11.0043 6.24387 11.1243 6.03587C11.2523 5.81987 11.4043 5.57987 11.5803 5.31587C11.8603 4.89187 11.9843 4.66387 11.9523 4.63187C11.9443 4.62387 11.9283 4.61987 11.9043 4.61987C11.7603 4.61987 11.3923 4.81987 10.8003 5.21987C10.3123 5.56387 9.97632 5.81587 9.79232 5.97587C9.24832 6.47187 8.88032 6.91587 8.68832 7.30787C8.30432 7.46787 8.06832 7.54787 7.98032 7.54787ZM13.6769 7.45187C13.4929 7.45187 13.4009 7.34387 13.4009 7.12787C13.4009 6.97587 13.4569 6.77987 13.5689 6.53987C13.8569 6.00387 14.3329 5.45187 14.9969 4.88387C15.8049 4.21187 16.4609 3.87587 16.9649 3.87587C17.2769 3.87587 17.4929 3.93587 17.6129 4.05587C17.7969 3.91987 17.9929 3.85187 18.2009 3.85187C18.2409 3.85187 18.2609 3.86387 18.2609 3.88787C18.2609 3.90387 18.2529 3.91987 18.2369 3.93587C18.1249 4.06387 17.9969 4.23587 17.8529 4.45187C17.7169 4.66787 17.5689 4.93587 17.4089 5.25587C17.0329 5.99187 16.8449 6.53187 16.8449 6.87587C16.8449 6.95587 16.8489 7.00387 16.8569 7.01987V7.03187C16.8569 7.07987 16.8329 7.13987 16.7849 7.21187C16.7369 7.27587 16.6889 7.30787 16.6409 7.30787C16.5449 7.30787 16.4969 7.14787 16.4969 6.82787C16.4969 6.28387 16.6209 5.76387 16.8689 5.26787L15.8489 6.11987C15.4649 6.43987 15.1169 6.70387 14.8049 6.91187C14.5009 7.11187 14.2369 7.26387 14.0129 7.36787C13.9009 7.42387 13.7889 7.45187 13.6769 7.45187ZM14.2169 6.89987C14.2649 6.89987 14.3169 6.88387 14.3729 6.85187C14.4769 6.81187 14.6569 6.70787 14.9129 6.53987C15.1689 6.37187 15.4449 6.16387 15.7409 5.91587C16.1089 5.61187 16.4129 5.33587 16.6529 5.08787C16.9009 4.83187 17.0809 4.63987 17.1929 4.51187C17.1449 4.37587 17.0489 4.30787 16.9049 4.30787C16.6249 4.30787 16.1769 4.54787 15.5609 5.02787C14.8649 5.58787 14.4089 6.04787 14.1929 6.40787C14.1209 6.53587 14.0849 6.65587 14.0849 6.76787C14.0849 6.85587 14.1289 6.89987 14.2169 6.89987ZM21.0591 7.63187C20.9631 7.63187 20.8831 7.58387 20.8191 7.48787C20.7311 7.35187 20.6871 7.16787 20.6871 6.93587C20.6871 6.51187 20.8391 5.92787 21.1431 5.18387C19.8871 6.33587 18.9391 7.05587 18.2991 7.34387C18.1311 7.41587 17.9871 7.45187 17.8671 7.45187C17.6351 7.45187 17.5191 7.33987 17.5191 7.11587C17.5191 6.99587 17.5591 6.85987 17.6391 6.70787C17.9351 6.16387 18.4111 5.61187 19.0671 5.05187C19.8831 4.35587 20.5351 4.00787 21.0231 4.00787C21.2311 4.00787 21.4151 4.05187 21.5751 4.13987L22.4031 2.74787C22.5951 2.41987 22.7791 2.15187 22.9551 1.94387C23.1311 1.72787 23.2831 1.56387 23.4111 1.45187C23.4671 1.39587 23.5671 1.36787 23.7111 1.36787C23.8391 1.36787 23.9031 1.40787 23.9031 1.48787C23.9031 1.55187 23.8671 1.62787 23.7951 1.71587C23.5951 1.97987 22.9351 2.92787 21.8151 4.55987C21.7511 4.68787 21.6831 4.83987 21.6111 5.01587C21.5471 5.18387 21.4751 5.37587 21.3951 5.59187C21.1791 6.19987 21.0711 6.65987 21.0711 6.97187C21.0711 7.18787 21.1271 7.31987 21.2391 7.36787C21.2871 7.37587 21.3111 7.40387 21.3111 7.45187C21.3111 7.57187 21.2271 7.63187 21.0591 7.63187ZM18.3591 6.91187C18.3751 6.91187 18.3951 6.90787 18.4191 6.89987C18.4431 6.88387 18.4711 6.87187 18.5031 6.86387C18.6391 6.79987 18.8151 6.69187 19.0311 6.53987C19.2551 6.38787 19.5151 6.19587 19.8111 5.96387C20.0191 5.80387 20.2391 5.61187 20.4711 5.38787C20.7031 5.15587 20.9551 4.89987 21.2271 4.61987C21.1471 4.45187 21.0471 4.36787 20.9271 4.36787C20.5751 4.36787 20.1071 4.61187 19.5231 5.09987C18.9871 5.53987 18.6071 5.94387 18.3831 6.31187C18.2791 6.46387 18.2271 6.59987 18.2271 6.71987C18.2271 6.84787 18.2711 6.91187 18.3591 6.91187ZM22.4894 7.45187C22.3054 7.45187 22.2134 7.34387 22.2134 7.12787C22.2134 6.97587 22.2694 6.77987 22.3814 6.53987C22.6694 6.00387 23.1454 5.45187 23.8094 4.88387C24.6174 4.21187 25.2734 3.87587 25.7774 3.87587C26.0894 3.87587 26.3054 3.93587 26.4254 4.05587C26.6094 3.91987 26.8054 3.85187 27.0134 3.85187C27.0534 3.85187 27.0734 3.86387 27.0734 3.88787C27.0734 3.90387 27.0654 3.91987 27.0494 3.93587C26.9374 4.06387 26.8094 4.23587 26.6654 4.45187C26.5294 4.66787 26.3814 4.93587 26.2214 5.25587C25.8454 5.99187 25.6574 6.53187 25.6574 6.87587C25.6574 6.95587 25.6614 7.00387 25.6694 7.01987V7.03187C25.6694 7.07987 25.6454 7.13987 25.5974 7.21187C25.5494 7.27587 25.5014 7.30787 25.4534 7.30787C25.3574 7.30787 25.3094 7.14787 25.3094 6.82787C25.3094 6.28387 25.4334 5.76387 25.6814 5.26787L24.6614 6.11987C24.2774 6.43987 23.9294 6.70387 23.6174 6.91187C23.3134 7.11187 23.0494 7.26387 22.8254 7.36787C22.7134 7.42387 22.6014 7.45187 22.4894 7.45187ZM23.0294 6.89987C23.0774 6.89987 23.1294 6.88387 23.1854 6.85187C23.2894 6.81187 23.4694 6.70787 23.7254 6.53987C23.9814 6.37187 24.2574 6.16387 24.5534 5.91587C24.9214 5.61187 25.2254 5.33587 25.4654 5.08787C25.7134 4.83187 25.8934 4.63987 26.0054 4.51187C25.9574 4.37587 25.8614 4.30787 25.7174 4.30787C25.4374 4.30787 24.9894 4.54787 24.3734 5.02787C23.6774 5.58787 23.2214 6.04787 23.0054 6.40787C22.9334 6.53587 22.8974 6.65587 22.8974 6.76787C22.8974 6.85587 22.9414 6.89987 23.0294 6.89987ZM26.6076 7.69187C26.3996 7.69187 26.2956 7.59187 26.2956 7.39187C26.2956 7.27987 26.3236 7.17187 26.3796 7.06787C26.4356 6.96387 26.5116 6.83187 26.6076 6.67187C26.7116 6.50387 26.8316 6.30787 26.9676 6.08387C27.1036 5.85987 27.2636 5.60387 27.4476 5.31587C27.6396 5.02787 27.8516 4.71187 28.0836 4.36787C28.3156 4.01587 28.5276 3.69987 28.7196 3.41987C28.9196 3.13987 29.0956 2.88787 29.2476 2.66387C29.4076 2.43987 29.5436 2.25187 29.6556 2.09987C29.7756 1.93987 29.8756 1.81187 29.9556 1.71587C30.0036 1.65987 30.1676 1.57587 30.4476 1.46387C30.7276 1.34387 30.9116 1.28387 30.9996 1.28387C31.0956 1.28387 31.1436 1.31587 31.1436 1.37987C31.1436 1.45187 31.0676 1.49987 30.9156 1.52387C30.6916 1.55587 30.4396 1.73187 30.1596 2.05187C29.8876 2.37187 29.4316 3.01987 28.7916 3.99587C28.6316 4.25187 28.5516 4.41587 28.5516 4.48787C28.5516 4.49587 28.5596 4.52387 28.5756 4.57187C28.7596 4.44387 28.9916 4.33187 29.2716 4.23587C29.5516 4.13187 29.8876 4.04787 30.2796 3.98387C30.3116 3.97587 30.3556 3.97187 30.4116 3.97187C30.5796 3.97187 30.6636 4.05987 30.6636 4.23587C30.6636 4.49187 30.4836 4.85987 30.1236 5.33987C29.9396 5.58787 29.7396 5.81987 29.5236 6.03587C29.3076 6.24387 29.0716 6.43987 28.8156 6.62387C27.8396 7.33587 27.1036 7.69187 26.6076 7.69187ZM27.1476 7.00787C27.4436 7.00787 27.7316 6.94387 28.0116 6.81587C28.2996 6.68787 28.5796 6.50787 28.8516 6.27587C29.3876 5.83587 29.7276 5.32387 29.8716 4.73987C29.8796 4.71587 29.8836 4.67987 29.8836 4.63187C29.8836 4.46387 29.8196 4.38787 29.6916 4.40387C29.4836 4.43587 29.2636 4.50387 29.0316 4.60787C28.7996 4.71187 28.5796 4.83987 28.3716 4.99187C28.1716 5.13587 28.0076 5.29587 27.8796 5.47187C27.7516 5.64787 27.6116 5.84787 27.4596 6.07187C27.3156 6.28787 27.1636 6.52787 27.0036 6.79187C26.9876 6.81587 26.9796 6.84387 26.9796 6.87587C26.9796 6.96387 27.0356 7.00787 27.1476 7.00787Z" fill="black"/>
</svg>
