<svg width="56" height="11" viewBox="0 0 56 11" fill="none" xmlns="http://www.w3.org/2000/svg">
<path d="M11.472 8.484C11.288 8.484 11.092 8.388 10.884 8.196C10.684 8.004 10.584 7.84 10.584 7.704C10.592 7.168 10.94 6.324 11.628 5.172C11.908 4.692 12.224 4.2 12.576 3.696C12.936 3.192 13.332 2.664 13.764 2.112C13.796 2.056 13.812 1.992 13.812 1.92C13.812 1.728 13.732 1.632 13.572 1.632C13.34 1.632 13.06 1.708 12.732 1.86C12.412 2.012 12.044 2.236 11.628 2.532C10.476 3.348 9.464 4.136 8.592 4.896C7.72 5.656 6.972 6.396 6.348 7.116C6.292 7.188 6.2 7.224 6.072 7.224C5.88 7.224 5.784 7.168 5.784 7.056C5.784 7.056 5.792 7.032 5.808 6.984C6.136 6.44 6.464 5.856 6.792 5.232C7.12 4.608 7.448 3.948 7.776 3.252C7.952 2.9 8.04 2.628 8.04 2.436C8.04 2.292 7.972 2.228 7.836 2.244C7.308 2.324 6.644 2.668 5.844 3.276C5.42 4.036 4.968 4.744 4.488 5.4C4.008 6.056 3.5 6.664 2.964 7.224C2.62 7.584 2.308 7.764 2.028 7.764C1.804 7.764 1.692 7.664 1.692 7.464C1.692 7.368 1.716 7.28 1.764 7.2C1.916 6.936 2.096 6.656 2.304 6.36C2.52 6.064 2.768 5.756 3.048 5.436C3.528 4.884 3.96 4.46 4.344 4.164L5.136 3.516C5.248 3.332 5.348 3.148 5.436 2.964C5.532 2.772 5.62 2.576 5.7 2.376L6.036 1.608C6.188 1.248 6.264 0.952 6.264 0.72C6.264 0.392 6.056 0.228 5.64 0.228C5.28 0.228 4.752 0.38 4.056 0.684C3.792 0.804 3.54 0.932 3.3 1.068C3.068 1.196 2.848 1.328 2.64 1.464C2.488 1.568 2.308 1.712 2.1 1.896C1.892 2.072 1.66 2.288 1.404 2.544C0.788 3.144 0.48 3.544 0.48 3.744C0.48 3.976 0.716 4.08 1.188 4.056H1.248C1.32 4.056 1.356 4.08 1.356 4.128C1.356 4.216 1.264 4.26 1.08 4.26C0.768 4.26 0.508 4.2 0.3 4.08C0.1 3.952 0 3.792 0 3.6C0 3.528 0.012 3.464 0.036 3.408C0.124 3.184 0.436 2.816 0.972 2.304C1.228 2.072 1.464 1.868 1.68 1.692C1.904 1.508 2.108 1.356 2.292 1.236C3.572 0.412 4.644 0 5.508 0C5.852 0 6.124 0.076 6.324 0.228C6.524 0.38 6.624 0.64 6.624 1.008C6.624 1.472 6.484 2.004 6.204 2.604L6.12 2.772C6.512 2.5 6.86 2.292 7.164 2.148C7.476 2.004 7.748 1.932 7.98 1.932C8.34 1.932 8.52 2.128 8.52 2.52C8.52 2.76 8.448 3.072 8.304 3.456C8.216 3.688 8.08 3.996 7.896 4.38C7.72 4.756 7.492 5.212 7.212 5.748C7.98 5.044 8.72 4.4 9.432 3.816C10.152 3.224 10.86 2.684 11.556 2.196C12.332 1.636 12.996 1.356 13.548 1.356C13.74 1.356 13.908 1.444 14.052 1.62C14.204 1.796 14.28 1.988 14.28 2.196C14.28 2.324 14.244 2.444 14.172 2.556L12.408 4.968C12.064 5.48 11.784 5.976 11.568 6.456C11.36 6.928 11.212 7.388 11.124 7.836C11.124 7.852 11.12 7.868 11.112 7.884C11.112 7.9 11.112 7.916 11.112 7.932C11.112 8.068 11.176 8.136 11.304 8.136C11.504 8.136 11.812 7.992 12.228 7.704C12.54 7.496 12.82 7.268 13.068 7.02C13.116 6.972 13.156 6.948 13.188 6.948C13.228 6.948 13.248 6.976 13.248 7.032C13.248 7.12 13.208 7.204 13.128 7.284C12.376 8.084 11.824 8.484 11.472 8.484ZM2.28 7.248C2.36 7.248 2.46 7.184 2.58 7.056C2.996 6.632 3.388 6.18 3.756 5.7C4.124 5.212 4.468 4.7 4.788 4.164C4.628 4.292 4.42 4.472 4.164 4.704C3.916 4.928 3.62 5.212 3.276 5.556C3.068 5.804 2.876 6.048 2.7 6.288C2.524 6.528 2.368 6.772 2.232 7.02C2.208 7.068 2.196 7.112 2.196 7.152C2.196 7.216 2.224 7.248 2.28 7.248Z" fill="#D4AF37"/>
<path d="M16.5684 7.704C16.4724 7.704 16.3924 7.656 16.3284 7.56C16.2404 7.424 16.1964 7.24 16.1964 7.008C16.1964 6.584 16.3484 6 16.6524 5.256C15.3964 6.408 14.4484 7.128 13.8084 7.416C13.6404 7.488 13.4964 7.524 13.3764 7.524C13.1444 7.524 13.0284 7.412 13.0284 7.188C13.0284 7.068 13.0684 6.932 13.1484 6.78C13.4444 6.236 13.9204 5.684 14.5764 5.124C15.3924 4.428 16.0444 4.08 16.5324 4.08C16.7404 4.08 16.9244 4.124 17.0844 4.212L17.9124 2.82C18.1044 2.492 18.2884 2.224 18.4644 2.016C18.6404 1.8 18.7924 1.636 18.9204 1.524C18.9764 1.468 19.0764 1.44 19.2204 1.44C19.3484 1.44 19.4124 1.48 19.4124 1.56C19.4124 1.624 19.3764 1.7 19.3044 1.788C19.1044 2.052 18.4444 3 17.3244 4.632C17.2604 4.76 17.1924 4.912 17.1204 5.088C17.0564 5.256 16.9844 5.448 16.9044 5.664C16.6884 6.272 16.5804 6.732 16.5804 7.044C16.5804 7.26 16.6364 7.392 16.7484 7.44C16.7964 7.448 16.8204 7.476 16.8204 7.524C16.8204 7.644 16.7364 7.704 16.5684 7.704ZM13.8684 6.984C13.8844 6.984 13.9044 6.98 13.9284 6.972C13.9524 6.956 13.9804 6.944 14.0124 6.936C14.1484 6.872 14.3244 6.764 14.5404 6.612C14.7644 6.46 15.0244 6.268 15.3204 6.036C15.5284 5.876 15.7484 5.684 15.9804 5.46C16.2124 5.228 16.4644 4.972 16.7364 4.692C16.6564 4.524 16.5564 4.44 16.4364 4.44C16.0844 4.44 15.6164 4.684 15.0324 5.172C14.4964 5.612 14.1164 6.016 13.8924 6.384C13.7884 6.536 13.7364 6.672 13.7364 6.792C13.7364 6.92 13.7804 6.984 13.8684 6.984Z" fill="#D4AF37"/>
<path d="M18.1154 7.464C17.8354 7.464 17.7434 7.404 17.8394 7.284C17.8714 7.252 17.9034 7.216 17.9354 7.176C17.9674 7.136 17.9994 7.096 18.0314 7.056C18.0634 7.016 18.0994 6.976 18.1394 6.936C18.1794 6.888 18.2194 6.84 18.2594 6.792C18.3874 6.688 18.5234 6.636 18.6674 6.636C18.7634 6.636 18.8114 6.676 18.8114 6.756C18.8114 6.82 18.7834 6.904 18.7274 7.008C18.6394 7.16 18.5634 7.276 18.4994 7.356C18.4354 7.428 18.3074 7.464 18.1154 7.464Z" fill="#D4AF37"/>
<path d="M22.1845 9.264C21.7605 9.264 21.5485 9.148 21.5485 8.916C21.5485 8.852 21.5525 8.812 21.5605 8.796C21.6085 8.62 21.9725 8.352 22.6525 7.992C23.3245 7.64 23.9765 7.388 24.6085 7.236C25.1845 7.1 25.7365 6.98 26.2645 6.876C26.7925 6.764 27.3005 6.672 27.7885 6.6C28.3165 6.176 28.6365 5.752 28.7485 5.328C28.7725 5.24 28.7845 5.16 28.7845 5.088C28.7845 4.776 28.5685 4.556 28.1365 4.428C28.0085 4.388 27.5645 4.316 26.8045 4.212C26.1005 4.116 25.6125 4.008 25.3405 3.888C24.9885 3.728 24.8125 3.5 24.8125 3.204C24.8125 3.092 24.8365 2.964 24.8845 2.82C25.0685 2.252 25.6765 1.668 26.7085 1.068C27.8445 0.404 28.9325 0.0719998 29.9725 0.0719998C30.7325 0.0719998 31.1125 0.288 31.1125 0.72C31.1125 0.944 31.0045 1.224 30.7885 1.56C30.7005 1.696 30.6285 1.764 30.5725 1.764C30.5485 1.764 30.5365 1.748 30.5365 1.716C30.5365 1.676 30.5605 1.616 30.6085 1.536C30.7285 1.344 30.7885 1.172 30.7885 1.02C30.7885 0.636 30.4405 0.444 29.7445 0.444C29.3045 0.444 28.8765 0.496 28.4605 0.6C28.0525 0.696 27.6485 0.836 27.2485 1.02C26.4005 1.428 25.8125 1.964 25.4845 2.628C25.4125 2.772 25.3765 2.896 25.3765 3C25.3765 3.376 25.9005 3.644 26.9485 3.804C27.8045 3.924 28.3805 4.032 28.6765 4.128C29.2365 4.304 29.5045 4.548 29.4805 4.86C29.5045 5.396 29.2085 5.94 28.5925 6.492L28.6765 6.48C28.7085 6.472 28.7485 6.468 28.7965 6.468C28.8445 6.468 28.9005 6.468 28.9645 6.468H29.0245C29.0965 6.468 29.1325 6.492 29.1325 6.54C29.1325 6.62 29.0565 6.664 28.9045 6.672C28.8645 6.68 28.8205 6.684 28.7725 6.684C28.7245 6.684 28.6765 6.688 28.6285 6.696L28.3165 6.732C27.8285 7.116 27.2765 7.472 26.6605 7.8C26.0445 8.128 25.3525 8.428 24.5845 8.7C23.5045 9.076 22.7045 9.264 22.1845 9.264ZM22.1125 8.976C22.4805 8.976 23.2605 8.756 24.4525 8.316C25.5805 7.924 26.5445 7.456 27.3445 6.912C27.0085 7 26.6165 7.104 26.1685 7.224C25.7205 7.336 25.2045 7.464 24.6205 7.608C24.3405 7.672 24.0565 7.756 23.7685 7.86C23.4805 7.972 23.1845 8.096 22.8805 8.232C22.2645 8.52 21.9565 8.74 21.9565 8.892V8.904C21.9565 8.952 22.0085 8.976 22.1125 8.976Z" fill="#D4AF37"/>
<path d="M29.5287 7.62C29.4727 7.62 29.4567 7.596 29.4807 7.548C29.7767 6.996 30.1087 6.428 30.4767 5.844C30.8527 5.252 31.2727 4.64 31.7367 4.008C32.5207 2.952 33.2287 2.04 33.8607 1.272C33.8927 1.216 34.0727 1.128 34.4007 1.008C34.7047 0.88 34.9127 0.816 35.0247 0.816C35.1367 0.816 35.1927 0.856 35.1927 0.936C35.1927 1.008 35.1287 1.044 35.0007 1.044C34.8647 1.044 34.6127 1.228 34.2447 1.596C33.9647 1.86 33.2967 2.648 32.2407 3.96C31.9447 4.328 31.6727 4.688 31.4247 5.04C31.1847 5.384 30.9687 5.724 30.7767 6.06C32.7047 4.732 33.7767 4.068 33.9927 4.068C34.1287 4.068 34.2607 4.188 34.3887 4.428C33.8767 4.94 33.4647 5.54 33.1527 6.228C33.0407 6.476 32.9847 6.656 32.9847 6.768C32.9847 6.912 33.0567 6.984 33.2007 6.984C33.3767 6.984 33.6847 6.872 34.1247 6.648L35.0367 6.18C35.0687 6.172 35.0847 6.188 35.0847 6.228C35.0847 6.268 35.0727 6.316 35.0487 6.372C35.0247 6.428 34.9967 6.464 34.9647 6.48L34.1607 6.984C33.8007 7.208 33.4527 7.356 33.1167 7.428C32.6207 7.236 32.3727 7.02 32.3727 6.78C32.3727 6.764 32.3727 6.748 32.3727 6.732C32.3807 6.708 32.3887 6.684 32.3967 6.66C32.4607 6.5 32.5527 6.316 32.6727 6.108C32.8007 5.892 32.9527 5.652 33.1287 5.388C33.4087 4.964 33.5327 4.736 33.5007 4.704C33.4927 4.696 33.4767 4.692 33.4527 4.692C33.3087 4.692 32.9407 4.892 32.3487 5.292C31.8607 5.636 31.5247 5.888 31.3407 6.048C30.7967 6.544 30.4287 6.988 30.2367 7.38C29.8527 7.54 29.6167 7.62 29.5287 7.62Z" fill="#D4AF37"/>
<path d="M35.2253 7.524C35.0413 7.524 34.9492 7.416 34.9492 7.2C34.9492 7.048 35.0052 6.852 35.1172 6.612C35.4052 6.076 35.8812 5.524 36.5452 4.956C37.3533 4.284 38.0092 3.948 38.5132 3.948C38.8252 3.948 39.0413 4.008 39.1613 4.128C39.3453 3.992 39.5412 3.924 39.7492 3.924C39.7892 3.924 39.8092 3.936 39.8092 3.96C39.8092 3.976 39.8013 3.992 39.7853 4.008C39.6733 4.136 39.5452 4.308 39.4012 4.524C39.2652 4.74 39.1172 5.008 38.9572 5.328C38.5812 6.064 38.3932 6.604 38.3932 6.948C38.3932 7.028 38.3973 7.076 38.4053 7.092V7.104C38.4053 7.152 38.3813 7.212 38.3333 7.284C38.2853 7.348 38.2373 7.38 38.1893 7.38C38.0933 7.38 38.0452 7.22 38.0452 6.9C38.0452 6.356 38.1693 5.836 38.4173 5.34L37.3973 6.192C37.0133 6.512 36.6652 6.776 36.3532 6.984C36.0492 7.184 35.7852 7.336 35.5612 7.44C35.4492 7.496 35.3373 7.524 35.2253 7.524ZM35.7653 6.972C35.8133 6.972 35.8652 6.956 35.9212 6.924C36.0252 6.884 36.2053 6.78 36.4613 6.612C36.7173 6.444 36.9932 6.236 37.2892 5.988C37.6572 5.684 37.9613 5.408 38.2013 5.16C38.4493 4.904 38.6292 4.712 38.7412 4.584C38.6932 4.448 38.5973 4.38 38.4533 4.38C38.1733 4.38 37.7252 4.62 37.1092 5.1C36.4132 5.66 35.9572 6.12 35.7412 6.48C35.6692 6.608 35.6333 6.728 35.6333 6.84C35.6333 6.928 35.6773 6.972 35.7653 6.972Z" fill="#D4AF37"/>
<path d="M42.6075 7.704C42.5115 7.704 42.4315 7.656 42.3675 7.56C42.2795 7.424 42.2355 7.24 42.2355 7.008C42.2355 6.584 42.3875 6 42.6915 5.256C41.4355 6.408 40.4875 7.128 39.8475 7.416C39.6795 7.488 39.5355 7.524 39.4155 7.524C39.1835 7.524 39.0675 7.412 39.0675 7.188C39.0675 7.068 39.1075 6.932 39.1875 6.78C39.4835 6.236 39.9595 5.684 40.6155 5.124C41.4315 4.428 42.0835 4.08 42.5715 4.08C42.7795 4.08 42.9635 4.124 43.1235 4.212L43.9515 2.82C44.1435 2.492 44.3275 2.224 44.5035 2.016C44.6795 1.8 44.8315 1.636 44.9595 1.524C45.0155 1.468 45.1155 1.44 45.2595 1.44C45.3875 1.44 45.4515 1.48 45.4515 1.56C45.4515 1.624 45.4155 1.7 45.3435 1.788C45.1435 2.052 44.4835 3 43.3635 4.632C43.2995 4.76 43.2315 4.912 43.1595 5.088C43.0955 5.256 43.0235 5.448 42.9435 5.664C42.7275 6.272 42.6195 6.732 42.6195 7.044C42.6195 7.26 42.6755 7.392 42.7875 7.44C42.8355 7.448 42.8595 7.476 42.8595 7.524C42.8595 7.644 42.7755 7.704 42.6075 7.704ZM39.9075 6.984C39.9235 6.984 39.9435 6.98 39.9675 6.972C39.9915 6.956 40.0195 6.944 40.0515 6.936C40.1875 6.872 40.3635 6.764 40.5795 6.612C40.8035 6.46 41.0635 6.268 41.3595 6.036C41.5675 5.876 41.7875 5.684 42.0195 5.46C42.2515 5.228 42.5035 4.972 42.7755 4.692C42.6955 4.524 42.5955 4.44 42.4755 4.44C42.1235 4.44 41.6555 4.684 41.0715 5.172C40.5355 5.612 40.1555 6.016 39.9315 6.384C39.8275 6.536 39.7755 6.672 39.7755 6.792C39.7755 6.92 39.8195 6.984 39.9075 6.984Z" fill="#D4AF37"/>
<path d="M44.0378 7.524C43.8538 7.524 43.7617 7.416 43.7617 7.2C43.7617 7.048 43.8177 6.852 43.9297 6.612C44.2177 6.076 44.6937 5.524 45.3577 4.956C46.1658 4.284 46.8217 3.948 47.3257 3.948C47.6377 3.948 47.8538 4.008 47.9738 4.128C48.1578 3.992 48.3537 3.924 48.5617 3.924C48.6017 3.924 48.6217 3.936 48.6217 3.96C48.6217 3.976 48.6138 3.992 48.5978 4.008C48.4858 4.136 48.3577 4.308 48.2137 4.524C48.0777 4.74 47.9297 5.008 47.7697 5.328C47.3937 6.064 47.2057 6.604 47.2057 6.948C47.2057 7.028 47.2098 7.076 47.2178 7.092V7.104C47.2178 7.152 47.1938 7.212 47.1458 7.284C47.0978 7.348 47.0498 7.38 47.0018 7.38C46.9058 7.38 46.8577 7.22 46.8577 6.9C46.8577 6.356 46.9818 5.836 47.2298 5.34L46.2098 6.192C45.8258 6.512 45.4777 6.776 45.1657 6.984C44.8617 7.184 44.5977 7.336 44.3737 7.44C44.2617 7.496 44.1498 7.524 44.0378 7.524ZM44.5778 6.972C44.6258 6.972 44.6777 6.956 44.7337 6.924C44.8377 6.884 45.0178 6.78 45.2738 6.612C45.5298 6.444 45.8057 6.236 46.1017 5.988C46.4697 5.684 46.7738 5.408 47.0138 5.16C47.2618 4.904 47.4417 4.712 47.5537 4.584C47.5057 4.448 47.4098 4.38 47.2658 4.38C46.9858 4.38 46.5377 4.62 45.9217 5.1C45.2257 5.66 44.7697 6.12 44.5537 6.48C44.4817 6.608 44.4458 6.728 44.4458 6.84C44.4458 6.928 44.4898 6.972 44.5778 6.972Z" fill="#D4AF37"/>
<path d="M48.156 7.764C47.948 7.764 47.844 7.664 47.844 7.464C47.844 7.352 47.872 7.244 47.928 7.14C47.984 7.036 48.06 6.904 48.156 6.744C48.26 6.576 48.38 6.38 48.516 6.156C48.652 5.932 48.812 5.676 48.996 5.388C49.188 5.1 49.4 4.784 49.632 4.44C49.864 4.088 50.076 3.772 50.268 3.492C50.468 3.212 50.644 2.96 50.796 2.736C50.956 2.512 51.092 2.324 51.204 2.172C51.324 2.012 51.424 1.884 51.504 1.788C51.552 1.732 51.716 1.648 51.996 1.536C52.276 1.416 52.46 1.356 52.548 1.356C52.644 1.356 52.692 1.388 52.692 1.452C52.692 1.524 52.616 1.572 52.464 1.596C52.24 1.628 51.988 1.804 51.708 2.124C51.436 2.444 50.98 3.092 50.34 4.068C50.18 4.324 50.1 4.488 50.1 4.56C50.1 4.568 50.108 4.596 50.124 4.644C50.308 4.516 50.54 4.404 50.82 4.308C51.1 4.204 51.436 4.12 51.828 4.056C51.86 4.048 51.904 4.044 51.96 4.044C52.128 4.044 52.212 4.132 52.212 4.308C52.212 4.564 52.032 4.932 51.672 5.412C51.488 5.66 51.288 5.892 51.072 6.108C50.856 6.316 50.62 6.512 50.364 6.696C49.388 7.408 48.652 7.764 48.156 7.764ZM48.696 7.08C48.992 7.08 49.28 7.016 49.56 6.888C49.848 6.76 50.128 6.58 50.4 6.348C50.936 5.908 51.276 5.396 51.42 4.812C51.428 4.788 51.432 4.752 51.432 4.704C51.432 4.536 51.368 4.46 51.24 4.476C51.032 4.508 50.812 4.576 50.58 4.68C50.348 4.784 50.128 4.912 49.92 5.064C49.72 5.208 49.556 5.368 49.428 5.544C49.3 5.72 49.16 5.92 49.008 6.144C48.864 6.36 48.712 6.6 48.552 6.864C48.536 6.888 48.528 6.916 48.528 6.948C48.528 7.036 48.584 7.08 48.696 7.08Z" fill="#D4AF37"/>
<path d="M55.1278 9.79122C55.1398 9.67784 55.1288 9.60027 55.095 9.55851C54.9935 9.43322 54.8069 9.33081 54.535 9.25129C54.2745 9.1857 53.9489 9.13238 53.5584 9.09133C53.0545 9.03837 52.4906 9.01094 51.8667 9.00905C51.2302 9.00584 50.5855 9.02086 49.9324 9.05411C49.2655 9.09864 48.6363 9.14713 48.0449 9.1996C47.4522 9.26467 46.942 9.33205 46.5144 9.40173C45.5583 9.5305 44.8045 9.67416 44.2529 9.83271C43.6887 9.98993 43.3622 10.1276 43.2734 10.2456C43.2442 10.2807 43.2214 10.3165 43.2048 10.353C43.1743 10.4007 43.1571 10.4435 43.1531 10.4813C43.1452 10.5569 43.1727 10.598 43.2357 10.6046C44.008 10.4056 44.8421 10.2258 45.7378 10.0652C46.6335 9.9046 47.5391 9.77053 48.4547 9.66298C49.3577 9.55411 50.2245 9.48601 51.0553 9.4587C51.8734 9.43006 52.6037 9.4495 53.2462 9.51703C53.5233 9.54616 53.7802 9.5859 54.0169 9.63625C54.2536 9.6866 54.4638 9.7469 54.6475 9.81715C54.7582 9.85426 54.8375 9.88806 54.8852 9.91855C54.9442 9.96296 54.9863 9.98649 55.0115 9.98914C55.0745 9.99576 55.1133 9.92979 55.1278 9.79122Z" fill="#D4AF37"/>
</svg>
