<svg width="50" height="46" viewBox="0 0 50 46" fill="none" xmlns="http://www.w3.org/2000/svg">
<path d="M43.7524 11.4771L43.7073 35.1793L38.5099 39.5238L38.4988 39.524L38.5603 7.52476L38.7133 7.52496L43.7524 11.4771Z" fill="#D4AF37"/>
<path d="M17.2401 11.0832C12.1086 11.4144 8.16464 17.0809 8.3889 23.8788C8.60042 30.2884 12.4433 35.4487 17.192 36.011L17.1869 38.8594C16.1515 38.8436 15.1052 38.7107 14.0629 38.4487C6.29637 36.4965 1.69211 28.1836 3.77899 19.8815C5.47255 13.1441 11.0523 8.48435 17.2462 8.01051L17.2401 11.0832ZM32.0679 26.2271C32.0185 26.4683 31.9647 26.7099 31.9041 26.9512C30.2151 33.6702 24.6611 38.3214 18.4875 38.8168L18.4925 36.0489C22.8708 35.787 26.3887 31.6425 27.2056 26.2182L32.0679 26.2271ZM21.6202 8.38397C27.5773 9.8814 31.6729 15.1211 32.3167 21.2277L27.1827 21.218C26.3187 15.7639 22.7901 11.5981 18.5399 11.1159L18.5456 7.97263C19.5649 7.99188 20.5945 8.12615 21.6202 8.38397Z" fill="#D4AF37"/>
<path d="M42.9446 25.2184L22.6949 25.1187L19.7641 22.0126L19.7678 21.9058L43.0508 22.0198L42.9446 25.2184Z" fill="#D4AF37"/>
</svg>
