<svg width="50" height="45" viewBox="0 0 50 45" fill="none" xmlns="http://www.w3.org/2000/svg">
<path d="M38.4353 24.8378L19.4768 24.8188L15.6065 21.6145L38.4387 21.6377L38.4353 24.8378ZM15.4387 21.6377L15.439 21.6148L15.4582 21.6142L15.4387 21.6377Z" fill="#080000"/>
<path d="M43.3141 10.8329L43.7044 34.5319L38.5877 38.9711L38.5766 38.9716L38.0502 6.97658L38.2032 6.97397L43.3141 10.8329Z" fill="black"/>
<path d="M16.7993 10.9257C11.6748 11.3512 7.83555 17.0892 8.18466 23.8818C8.5139 30.2864 12.451 35.3752 17.2092 35.8502L17.2564 38.6982C16.2208 38.7015 15.1723 38.5878 14.1254 38.345C6.3243 36.5358 1.56809 28.3089 3.50209 19.9699C5.07158 13.2025 10.5648 8.44102 16.749 7.85347L16.7993 10.9257ZM31.9028 25.7947C31.8578 26.0367 31.8085 26.2792 31.7523 26.5216C30.1871 33.2705 24.7195 38.023 18.556 38.6317L18.5101 35.8642C22.8829 35.5219 26.3241 31.3135 27.0412 25.8751L31.9028 25.7947ZM21.129 8.1465C27.1127 9.53423 31.3039 14.6978 32.0597 20.7916L26.9264 20.8762C25.9624 15.4388 22.3578 11.3386 18.0995 10.9345L18.0475 7.79172C19.0669 7.79224 20.0988 7.90756 21.129 8.1465Z" fill="black"/>
</svg>
